#tb 0: 1/10
#media_type 0: video
#codec_id 0: gif
#dimensions 0: 217x217
#sar 0: 0/1
0,          0,          0,        1,     1297, 0x5618fe71
0,          1,          1,        1,      158, 0xfa673468, F=0x0
0,          2,          2,        1,      143, 0x61cf2b35, F=0x0
0,          3,          3,        1,      169, 0x152a369a, F=0x0
0,          4,          4,        1,      254, 0x22935c08, F=0x0
0,          5,          5,        1,      221, 0x9972496f, F=0x0
0,          6,          6,        1,      176, 0xf6af3ab2, F=0x0
0,          7,          7,        1,      189, 0xcdc23f20, F=0x0
0,          8,          8,        1,      139, 0x081e3020, F=0x0
0,          9,          9,        1,      160, 0x9153335f, F=0x0
0,         10,         10,        1,      149, 0x8fa12e7d, F=0x0
0,         11,         11,        1,      190, 0x43ef3de1, F=0x0
0,         12,         12,        1,      308, 0x95c77160, F=0x0
0,         13,         13,        1,      193, 0xf9084196, F=0x0
0,         14,         14,        1,      191, 0x07784447, F=0x0
0,         15,         15,        1,      198, 0x7d72420a, F=0x0
0,         16,         16,        1,      417, 0xbf40acdc, F=0x0
0,         17,         17,        1,      163, 0xf7df3842, F=0x0
0,         18,         18,        1,      383, 0xadcf9e8e, F=0x0
0,         19,         19,        1,      193, 0xba544052, F=0x0
0,         20,         20,        1,      337, 0x1510922f, F=0x0
0,         21,         21,        1,      199, 0x11d64936, F=0x0
0,         22,         22,        1,      308, 0x79597dbc, F=0x0
0,         23,         23,        1,      186, 0x25d04175, F=0x0
0,         24,         24,        1,      199, 0x8b65402f, F=0x0
0,         25,         25,        1,      163, 0x128e38b6, F=0x0
0,         26,         26,        1,      302, 0xacc979b2, F=0x0
0,         27,         27,        1,      189, 0x491f3c5c, F=0x0
0,         28,         28,        1,      157, 0x50783600, F=0x0
0,         29,         29,        1,      205, 0xad9045b3, F=0x0
0,         30,         30,        1,      160, 0xcbf332f8, F=0x0
0,         31,         31,        1,      202, 0xc72c48bf, F=0x0
0,         32,         32,        1,      160, 0xe6c436dd, F=0x0
0,         33,         33,        1,      215, 0x4f705072, F=0x0
0,         34,         34,        1,      422, 0xed27b0b0, F=0x0
0,         35,         35,        1,      184, 0x6ba8415a, F=0x0
0,         36,         36,        1,      289, 0x0b5f73a3, F=0x0
0,         37,         37,        1,      190, 0xea5b4316, F=0x0
0,         38,         38,        1,      195, 0xd9f2441d, F=0x0
0,         39,         39,        1,      199, 0x47e34e05, F=0x0
0,         40,         40,        1,      448, 0xec8bbf56, F=0x0
0,         41,         41,        1,      170, 0x42fb3755, F=0x0
0,         42,         42,        1,      279, 0x87cc6f54, F=0x0
0,         43,         43,        1,      180, 0x085f398a, F=0x0
0,         44,         44,        1,      303, 0x46fe7c55, F=0x0
0,         45,         45,        1,      209, 0xc60b5116, F=0x0
0,         46,         46,        1,      198, 0x795f4655, F=0x0
0,         47,         47,        1,      194, 0xeb1b4abe, F=0x0
0,         48,         48,        1,      186, 0x97b44251, F=0x0
0,         49,         49,        1,     1200, 0xeb5a36ba, F=0x0
0,         50,         50,        1,      204, 0x00bc4594, F=0x0
0,         51,         51,        1,     1066, 0xdc39eee0, F=0x0
0,         52,         52,        1,      187, 0x344b4304, F=0x0
0,         53,         53,        1,      323, 0x899f8522, F=0x0
0,         54,         54,        1,      205, 0x48af49da, F=0x0
0,         55,         55,        1,      213, 0xf2534ff5, F=0x0
0,         56,         56,        1,      208, 0x8fba4b25, F=0x0
0,         57,         57,        1,      737, 0x1612477c, F=0x0
0,         58,         58,        1,      181, 0x903b38ad, F=0x0
0,         59,         59,        1,      614, 0xb154157d, F=0x0
0,         60,         60,        1,      215, 0x4e82532e, F=0x0
0,         61,         61,        1,      291, 0x69476efd, F=0x0
0,         62,         62,        1,      208, 0x471d4ea1, F=0x0
0,         63,         63,        1,      208, 0xa2b04628, F=0x0
0,         64,         64,        1,      203, 0x96d646b2, F=0x0
0,         65,         65,        1,      531, 0xd085ea85, F=0x0
0,         66,         66,        1,      178, 0x51663ad1, F=0x0
0,         67,         67,        1,      446, 0x00adbe2d, F=0x0
0,         68,         68,        1,      188, 0x7ccb3dda, F=0x0
0,         69,         69,        1,      177, 0xd881441a, F=0x0
0,         70,         70,        1,      112, 0x44cc2135, F=0x0
0,         71,         71,        1,      296, 0x717d7172, F=0x0
0,         72,         72,        1,      153, 0xbd403424, F=0x0
0,         73,         73,        1,      218, 0x1d9a4f26, F=0x0
0,         74,         74,        1,      202, 0x6ee647eb, F=0x0
0,         75,         75,        1,      239, 0x71245ad2, F=0x0
0,         76,         76,        1,      139, 0xbbdd2d23, F=0x0
0,         77,         77,        1,      467, 0x6e1cc838, F=0x0
0,         78,         78,        1,      274, 0xea1079c5, F=0x0
0,         79,         79,        1,      404, 0xbf5caaa0, F=0x0
0,         80,         80,        1,      257, 0xac4865e5, F=0x0
0,         81,         81,        1,      419, 0xa45ab5fc, F=0x0
0,         82,         82,        1,      208, 0xb5dd4fc3, F=0x0
0,         83,         83,        1,      294, 0xcf5176ee, F=0x0
0,         84,         84,        1,      191, 0xed7e3e98, F=0x0
0,         85,         85,        1,      181, 0x9105450e, F=0x0
0,         86,         86,        1,      218, 0x445c54ae, F=0x0
0,         87,         87,        1,      423, 0x5dc9bec5, F=0x0
0,         88,         88,        1,      202, 0xdfde4a35, F=0x0
0,         89,         89,        1,      317, 0x9a918033, F=0x0
0,         90,         90,        1,      172, 0x081e3d8c, F=0x0
0,         91,         91,        1,      275, 0x37536b50, F=0x0
0,         92,         92,        1,      214, 0xecfc4e8f, F=0x0
0,         93,         93,        1,      182, 0x85bf44e5, F=0x0
0,         94,         94,        1,      151, 0x4c8230ae, F=0x0
0,         95,         95,        1,      157, 0xa02a32eb, F=0x0
0,         96,         96,        1,      202, 0xb24a4355, F=0x0
0,         97,         97,        1,      162, 0x632d3576, F=0x0
0,         98,         98,        1,      186, 0x6f9c407c, F=0x0
0,         99,         99,        1,      318, 0xade078ca, F=0x0
0,        100,        100,        1,      225, 0xd2754eee, F=0x0
0,        101,        101,        1,      207, 0xdedb4552, F=0x0
0,        102,        102,        1,      212, 0x25384cd1, F=0x0
0,        103,        103,        1,      153, 0x489434d3, F=0x0
0,        104,        104,        1,      196, 0x659145f9, F=0x0
0,        105,        105,        1,      146, 0x8b223366, F=0x0
0,        106,        106,        1,      194, 0x0bc14890, F=0x0
0,        107,        107,        1,      304, 0xdece8235, F=0x0
0,        108,        108,        1,      194, 0x7737464d, F=0x0
0,        109,        109,        1,      190, 0x945e43a4, F=0x0
0,        110,        110,        1,      204, 0x8de14af3, F=0x0
0,        111,        111,        1,      136, 0xd0862cb1, F=0x0
0,        112,        112,        1,      171, 0xff6f3da8, F=0x0
0,        113,        113,        1,      140, 0x3475307b, F=0x0
0,        114,        114,        1,      158, 0x8f31321e, F=0x0
0,        115,        115,        1,       94, 0xf6691c01, F=0x0
0,        116,        116,        1,      110, 0x66e52218, F=0x0
0,        117,        117,        1,      256, 0x4b086864, F=0x0
0,        118,        118,        1,      220, 0x6fb75337, F=0x0
0,        119,        119,        1,      221, 0x69a94e72, F=0x0
0,        120,        120,        1,      205, 0xbae94509, F=0x0
0,        121,        121,        1,      169, 0xdd3c388b, F=0x0
0,        122,        122,        1,      970, 0x9771c82f, F=0x0
0,        123,        123,        1,      181, 0xec794298, F=0x0
0,        124,        124,        1,      955, 0x23edba10, F=0x0
0,        125,        125,        1,      158, 0x3ad83314, F=0x0
0,        126,        126,        1,      344, 0x29aa8843, F=0x0
0,        127,        127,        1,      627, 0x6d3f18dc, F=0x0
0,        128,        128,        1,      172, 0x985d3cc5, F=0x0
0,        129,        129,        1,      494, 0x591cdcc3, F=0x0
0,        130,        130,        1,      184, 0x83ca42c1, F=0x0
0,        131,        131,        1,      352, 0x68169925, F=0x0
0,        132,        132,        1,      351, 0x06998cfa, F=0x0
0,        133,        133,        1,      170, 0xaec83809, F=0x0
0,        134,        134,        1,      275, 0xd1ea6a74, F=0x0
0,        135,        135,        1,      168, 0xe9b93a2e, F=0x0
0,        136,        136,        1,      169, 0xa27f3870, F=0x0
0,        137,        137,        1,      521, 0xf195dc2e, F=0x0
0,        138,        138,        1,     1262, 0x52b34497, F=0x0
0,        139,        139,        1,      994, 0x9d72bc25, F=0x0
0,        140,        140,        1,      290, 0xb2c17360, F=0x0
0,        141,        141,        1,      188, 0x2c30402b, F=0x0
0,        142,        142,        1,      164, 0x8bb13b7a, F=0x0
0,        143,        143,        1,      212, 0x69af44ca, F=0x0
0,        144,        144,        1,      870, 0xebc09472, F=0x0
0,        145,        145,        1,      635, 0x1f781aee, F=0x0
0,        146,        146,        1,      290, 0x01a5786c, F=0x0
0,        147,        147,        1,      211, 0xec4d5052, F=0x0
0,        148,        148,        1,      177, 0x56db3c7b, F=0x0
0,        149,        149,        1,      182, 0x312c3f58, F=0x0
0,        150,        150,        1,      588, 0x9924fcca, F=0x0
0,        151,        151,        1,      163, 0xe23a370e, F=0x0
0,        152,        152,        1,      407, 0x525ab1a8, F=0x0
0,        153,        153,        1,      204, 0x0b84449d, F=0x0
0,        154,        154,        1,      290, 0xa97e7886, F=0x0
0,        155,        155,        1,      308, 0xac988116, F=0x0
0,        156,        156,        1,      196, 0x6d6c47fa, F=0x0
0,        157,        157,        1,      181, 0x7a413f71, F=0x0
0,        158,        158,        1,      203, 0xb03b4fa8, F=0x0
0,        159,        159,        1,      227, 0xb3d55aeb, F=0x0
0,        160,        160,        1,      524, 0xa731e285, F=0x0
0,        161,        161,        1,      377, 0x4ac097de, F=0x0
0,        162,        162,        1,      196, 0x78264511, F=0x0
0,        163,        163,        1,      250, 0x6d4f65a1, F=0x0
0,        164,        164,        1,      214, 0x31534ffe, F=0x0
0,        165,        165,        1,      323, 0xd4d78fa2, F=0x0
0,        166,        166,        1,      176, 0x642e40ab, F=0x0
0,        167,        167,        1,      305, 0x63db7e18, F=0x0
0,        168,        168,        1,      179, 0x4c4042da, F=0x0
0,        169,        169,        1,      245, 0x645264fb, F=0x0
0,        170,        170,        1,      181, 0x0a3e403e, F=0x0
0,        171,        171,        1,      241, 0x592e57b1, F=0x0
0,        172,        172,        1,      172, 0xf5cb3f7f, F=0x0
